<?xml version="1.0" standalone="no"?>
<!DOCTYPE svg PUBLIC "-//W3C//DTD SVG 20010904//EN"
 "http://www.w3.org/TR/2001/REC-SVG-20010904/DTD/svg10.dtd">
<svg version="1.0" xmlns="http://www.w3.org/2000/svg"
 width="304.000000pt" height="304.000000pt" viewBox="0 0 304.000000 304.000000"
 preserveAspectRatio="xMidYMid meet">
<metadata>
Created by potrace 1.15, written by Peter Selinger 2001-2017
</metadata>
<g transform="translate(0.000000,304.000000) scale(0.100000,-0.100000)"
fill="#000000" stroke="none">
<path d="M1396 2689 c-460 -59 -853 -401 -972 -844 -109 -407 2 -824 300
-1121 419 -419 1072 -457 1536 -88 218 172 372 430 421 704 17 96 17 303 0
400 -41 231 -154 445 -325 616 -255 255 -609 378 -960 333z m-208 -1116 l3
-83 50 0 c46 0 50 -2 47 -21 -3 -19 -9 -21 -77 -21 l-75 0 2 103 c0 57 1 105
1 107 1 2 11 2 24 0 20 -3 22 -9 25 -85z m287 71 c54 -36 57 -134 4 -178 -105
-89 -232 77 -131 171 30 28 90 31 127 7z m240 -9 c14 -13 25 -31 25 -40 0 -22
-36 -19 -60 5 -11 11 -24 20 -30 20 -20 0 -50 -41 -50 -68 0 -42 21 -64 55
-60 33 4 47 28 16 28 -14 0 -21 6 -21 20 0 17 7 20 45 20 l45 0 0 -54 c0 -38
-4 -56 -14 -59 -8 -3 -16 -2 -18 4 -2 5 -15 4 -34 -3 -96 -36 -170 107 -95
183 39 39 100 41 136 4z m236 -4 c24 -25 29 -38 29 -79 0 -61 -26 -99 -76
-108 -73 -13 -124 34 -124 116 0 58 42 100 100 100 33 0 48 -6 71 -29z"/>
</g>
</svg>
